<svg xmlns="http://www.w3.org/2000/svg" viewBox="0 0 512 512" role="img" aria-labelledby="title">
  <title id="title">Mínima</title>
  <rect width="512" height="512" fill="#082b24"/>
  <rect x="32" y="32" width="448" height="448" rx="88" fill="#146449" stroke="#d7b35a" stroke-width="18"/>
  <path d="M62 176c103-58 285-58 388 0v230c-103 58-285 58-388 0z" fill="#0d513d" opacity=".7"/>
  <g stroke="#f2dfb0" stroke-width="10">
    <rect x="88" y="156" width="104" height="154" rx="16" fill="#a52f3b" transform="rotate(-8 140 233)"/>
    <rect x="204" y="140" width="104" height="154" rx="16" fill="#a52f3b"/>
    <rect x="320" y="156" width="104" height="154" rx="16" fill="#a52f3b" transform="rotate(8 372 233)"/>
  </g>
  <g fill="none" stroke="#d36e72" stroke-width="5" opacity=".75">
    <path d="M109 179l62 108M171 179l-62 108M225 163l62 108M287 163l-62 108M341 179l62 108M403 179l-62 108"/>
  </g>
  <circle cx="256" cy="217" r="34" fill="#f2dfb0"/>
  <text x="256" y="236" text-anchor="middle" font-family="Arial, sans-serif" font-size="58" font-weight="900" fill="#146449">?</text>
  <path d="M143 366h226" stroke="#d7b35a" stroke-width="12" stroke-linecap="round"/>
  <text x="256" y="415" text-anchor="middle" font-family="Arial, sans-serif" font-size="60" font-weight="900" fill="#f4efe3">M</text>
</svg>
